<?xml version="1.0" encoding="utf-8"?>
<!-- Generator: Adobe Illustrator 26.0.3, SVG Export Plug-In . SVG Version: 6.00 Build 0)  -->
<svg version="1.1" id="Ebene_1" xmlns="http://www.w3.org/2000/svg" xmlns:xlink="http://www.w3.org/1999/xlink" x="0px" y="0px"
	 width="230px" height="55.6px" viewBox="0 0 230 55.6" style="enable-background:new 0 0 230 55.6;" xml:space="preserve">
<style type="text/css">
	.st0{fill:#222D32;}
</style>
<g>
	<path class="st0" d="M99,51.5c-0.2,0-0.3-0.1-0.3-0.4l0.1-50c0-0.2,0.1-0.3,0.3-0.3h23.4c0.2,0,0.3,0.1,0.3,0.4v8.1
		c0,0.2-0.1,0.3-0.3,0.3h-15V21h15c0.2,0,0.3,0.1,0.3,0.3l0.1,8.2c0,0.2-0.1,0.3-0.3,0.3h-15.1v12.7h15.1c0.2,0,0.3,0.1,0.3,0.4v8.3
		c0,0.2-0.1,0.3-0.3,0.3H99z"/>
	<path class="st0" d="M224.4,42.5c-0.3,0.4-7.3,8.1-14.2,3.4c-9.7-6.3-19.6,0.4-23.6,4.9l5.6,4.9c0.3-0.4,7.3-8.1,14.2-3.4
		c2.8,1.9,5.7,2.6,8.4,2.6c6.5,0,12.3-4.3,15.1-7.5L224.4,42.5z"/>
	<path class="st0" d="M0.3,51.5c-0.2,0-0.3-0.1-0.3-0.4l0.2-50c0-0.3,0.1-0.4,0.3-0.4h8.1c0.2,0,0.3,0.1,0.3,0.4v19.8L21.3,1
		c0.2-0.2,0.3-0.3,0.5-0.3h8.8c0.2,0,0.3,0.1,0.2,0.3L15.9,26l15.1,25.2c0.1,0.2,0,0.3-0.4,0.3h-8.5c-0.3,0-0.4-0.1-0.5-0.3
		L8.9,30.4v3.4v17.4c0,0.3-0.1,0.4-0.3,0.4H0.3z"/>
	<path class="st0" d="M47.8,51.5c-0.2,0-0.3-0.1-0.3-0.4L47.7,1c0-0.2,0.1-0.3,0.3-0.3h14.8c2.6,0,5,0.7,7.3,2c2.2,1.3,4,3,5.3,5.1
		c1.3,2.2,2,4.6,2,7.3c0,1.8-0.3,3.5-0.8,4.9c-0.6,1.4-1.1,2.6-1.9,3.6c-0.7,1-1.4,1.8-2,2.2c2.6,2.9,3.9,6.4,3.9,10.3l0.1,15
		c0,0.3-0.1,0.4-0.4,0.4h-8.2c-0.2,0-0.3-0.1-0.3-0.2V36.2c0-1.8-0.7-3.3-1.9-4.6c-1.2-1.3-2.8-2-4.6-2h-4.8L56.5,51
		c0,0.3-0.1,0.4-0.3,0.4L47.8,51.5L47.8,51.5z M56.4,20.9h6.3c1.5,0,2.8-0.6,4-1.7c1.1-1.1,1.8-2.5,1.8-4.1c0-1.6-0.6-2.9-1.7-4
		c-1.1-1.1-2.5-1.7-4-1.7h-6.3L56.4,20.9z"/>
	<path class="st0" d="M154.4,9.5h-8.5c-0.2,0-0.3-0.1-0.3-0.3V1.1c0-0.2,0.1-0.3,0.3-0.3l13.7-0.1c2.7-0.1,5.1,0.6,7.3,1.9
		c2.2,1.3,4,3.1,5.3,5.3c1.3,2.2,2,4.7,2,7.3v20.9c0,2.8-0.7,5.4-2.1,7.7c-1.4,2.3-3.2,4.1-5.5,5.5c-2.2,1.4-4.9,2.1-7.8,2.2
		l-13.1,0.1c-0.3,0-0.4-0.1-0.4-0.4V21.4v-0.1c0-0.2,0.1-0.3,0.3-0.3h8.2c0.2,0,0.3,0.1,0.3,0.3v21.3h4.5c1.8,0,3.4-0.7,4.6-1.9
		c1.2-1.3,1.9-2.8,1.9-4.5V15.1c0-1.6-0.6-2.9-1.7-4c-1.1-1.1-2.5-1.7-4-1.7L154.4,9.5z"/>
	<path class="st0" d="M207.7,39.2c-2.6,0-5-0.7-7.2-2c-2.2-1.3-3.9-3.1-5.2-5.3c-1.3-2.2-2-4.7-2-7.3l0.1-10.1c0-2.7,0.7-5.1,2-7.3
		c1.3-2.2,3-3.9,5.2-5.2c2.2-1.3,4.6-2,7.1-2c2.6,0,5,0.7,7.1,2c2.1,1.3,3.8,3.1,5.1,5.2c1.3,2.2,2,4.6,2,7.3l0.1,10.1
		c0,2.7-0.7,5.1-2,7.3c-1.3,2.2-3,4-5.1,5.3C212.6,38.5,210.3,39.2,207.7,39.2 M207.7,30.4c1.5,0,2.7-0.6,3.8-1.8
		c1.1-1.2,1.7-2.5,1.7-4l-0.1-10.1c0-1.6-0.5-3-1.5-4.1c-1-1.1-2.3-1.7-3.8-1.7c-1.5,0-2.8,0.6-3.8,1.7c-1,1.1-1.6,2.4-1.6,4.1v10.1
		c0,1.6,0.6,3,1.6,4.1C204.9,29.8,206.2,30.4,207.7,30.4"/>
</g>
</svg>
